<?xml version="1.0" encoding="UTF-8"?>
<svg version="1.1" xmlns="http://www.w3.org/2000/svg" width="447" height="447">
<path d="M0 0 C147.51 0 295.02 0 447 0 C447 147.51 447 295.02 447 447 C299.49 447 151.98 447 0 447 C0 299.49 0 151.98 0 0 Z " fill="#FEFEFE" transform="translate(0,0)"/>
<path d="M0 0 C0.85207031 0.268125 1.70414063 0.53625 2.58203125 0.8125 C10.06053 3.32276532 18.87418363 6.6925831 24 13 C23.57894737 17.42105263 23.57894737 17.42105263 22 19 C20.3610707 19.12156945 18.71735374 19.17969974 17.07421875 19.2109375 C-7.05863633 19.79210441 -7.05863633 19.79210441 -28 31 C-28.33 31.99 -28.66 32.98 -29 34 C-27.7625 34.2784375 -27.7625 34.2784375 -26.5 34.5625 C-17.63635606 38.20292519 -10.60160752 46.77215346 -6 55 C-5.29474751 56.9122869 -4.64937185 58.84736922 -4.0546875 60.796875 C-3.5294751 62.47052124 -3.5294751 62.47052124 -2.99365234 64.17797852 C-2.62449707 65.35674561 -2.2553418 66.5355127 -1.875 67.75 C5.75805287 91.34893374 19.16061227 117.08532471 41.375 130.1875 C42.58053635 130.79722855 43.78923057 131.40073028 45 132 C45.81339844 132.47050781 46.62679687 132.94101563 47.46484375 133.42578125 C71.10814839 146.49608546 99.46167351 142.78458756 125.32617188 140.21533203 C223.97359511 130.41784997 223.97359511 130.41784997 255 154 C255.66 154.66 256.32 155.32 257 156 C268.45742389 156.97776703 283.25570025 151.64302459 292.11328125 144.6953125 C296.04019514 141.16678118 298.21584648 137.94073283 300 133 C301 132 301 132 303.875 131.6875 C307 132 307 132 308.66796875 133.421875 C310.712907 137.37982 310.48834914 141.16969953 310.4375 145.5625 C310.42614014 146.91178589 310.42614014 146.91178589 310.41455078 148.28833008 C310.0286914 163.88465352 301.95292156 175.36382959 291 186 C287.12219048 189.18409585 283.12195191 192.14077829 279 195 C277.93136719 195.74507812 276.86273438 196.49015625 275.76171875 197.2578125 C273 199 273 199 271 199 C271.01571045 199.61705811 271.0314209 200.23411621 271.04760742 200.86987305 C271.40946287 217.39155149 270.27871205 233.04125205 266.92578125 249.22265625 C263.92621461 264.09911972 267.44663305 278.77629202 274.984375 291.82421875 C283.51046051 310.08971732 275.61386281 342.29910984 273.5625 361.4375 C273.39754028 363.07150757 273.39754028 363.07150757 273.22924805 364.73852539 C273.05582886 366.25820923 273.05582886 366.25820923 272.87890625 367.80859375 C272.7816626 368.69345459 272.68441895 369.57831543 272.58422852 370.48999023 C271.74537013 374.09396142 270.36934005 377.14086374 267.17578125 379.14453125 C265.45052083 379.76302083 263.72526042 380.38151042 262 381 C262.33 382.010625 262.66 383.02125 263 384.0625 C264.07001321 387.75479911 264.15704155 391.15248207 264 395 C263.34 395 262.68 395 262 395 C261.7525 395.61875 261.505 396.2375 261.25 396.875 C259.69788015 399.51360375 258.86796573 399.95600879 256 401 C253.48619965 401.11212296 251.10560393 401.11835587 248.6015625 401.01171875 C247.88898285 400.98906448 247.1764032 400.96641022 246.44223022 400.94306946 C244.93755051 400.8932153 243.43303206 400.8382674 241.92871094 400.77856445 C239.64021892 400.6881016 237.3516352 400.61316672 235.0625 400.54101562 C233.59632238 400.4904975 232.13017495 400.43909393 230.6640625 400.38671875 C229.98574371 400.36373215 229.30742493 400.34074554 228.60855103 400.31706238 C224.67165255 400.15649827 220.84344171 399.89384899 217 399 C215.73973202 396.47946405 216.08125555 395.1457902 216.4375 392.375 C216.53933594 391.55773437 216.64117187 390.74046875 216.74609375 389.8984375 C216.82988281 389.27195312 216.91367187 388.64546875 217 388 C215.80375 387.9175 214.6075 387.835 213.375 387.75 C209.09584533 387.22555653 206.38584128 385.72518932 203 383 C201.37347971 379.74695941 201.40578685 376.512125 202 373 C203.42125849 370.28617689 205.28978472 368.10048942 207.3125 365.8125 C208.31104027 364.63357826 209.3071908 363.45262769 210.30078125 362.26953125 C210.74591064 361.76010986 211.19104004 361.25068848 211.6496582 360.72583008 C212.095271 360.15630615 212.54088379 359.58678223 213 359 C213.54624023 358.33073486 214.09248047 357.66146973 214.65527344 356.97192383 C216.71113824 352.42834318 216.33563495 348.10444782 216.21484375 343.1796875 C216.18941246 341.59802292 216.18941246 341.59802292 216.16346741 339.98440552 C216.12299499 337.753447 216.07458061 335.52262042 216.01879883 333.29199219 C215.93828834 329.90813397 215.89421894 326.52516757 215.85351562 323.140625 C215.80950879 320.96609983 215.76335237 318.7916169 215.71484375 316.6171875 C215.70420395 315.61783173 215.69356415 314.61847595 215.68260193 313.58883667 C215.46410826 306.42468395 213.78515153 300.58192473 211 294 C210.5875 292.989375 210.175 291.97875 209.75 290.9375 C206.96892918 286.26927399 203.52371044 282.1275721 200 278 C199.54367187 277.40316406 199.08734375 276.80632812 198.6171875 276.19140625 C194.78952969 273.37151342 188.4138407 275.36052199 184 276 C181.9098769 276.44862444 179.82603557 276.9276424 177.75 277.4375 C140.52857094 286.38116493 100.48191757 280.33558504 64 271 C63.18681176 274.72901693 62.37457052 278.45823952 61.5625 282.1875 C61.21735352 283.77014648 61.21735352 283.77014648 60.86523438 285.38476562 C60.64287109 286.40634766 60.42050781 287.42792969 60.19140625 288.48046875 C59.98717041 289.41785889 59.78293457 290.35524902 59.57250977 291.32104492 C59.38358154 292.2051001 59.19465332 293.08915527 59 294 C58.8146167 294.77867432 58.6292334 295.55734863 58.43823242 296.35961914 C57.86246579 299.82865322 57.81791468 303.25897891 57.796875 306.765625 C57.79117493 307.51728943 57.78547485 308.26895386 57.77960205 309.043396 C57.77017543 310.63698942 57.76362738 312.23060213 57.75976562 313.82421875 C57.75019768 316.20089624 57.71921269 318.57665529 57.6875 320.953125 C57.63013557 329.62870517 58.15649996 337.80285109 60.03338623 346.29400635 C60.99574527 350.82592967 60.99606787 354.47339788 60 359 C58.22265625 361.66015625 58.22265625 361.66015625 56.0625 364.0625 C51.97793169 368.63632694 50.22591337 372.42458761 49.6875 378.5625 C48.83795646 382.8102177 47.28661315 384.27451592 44 387 C41.65147472 388.17426264 40.26225935 388.11508173 37.6484375 388.09765625 C36.79765625 388.09443359 35.946875 388.09121094 35.0703125 388.08789062 C34.18085938 388.07951172 33.29140625 388.07113281 32.375 388.0625 C31.4778125 388.05798828 30.580625 388.05347656 29.65625 388.04882812 C27.43743352 388.03702591 25.21874982 388.02056155 23 388 C22.7009375 388.78890625 22.401875 389.5778125 22.09375 390.390625 C20.69532712 393.72686243 19.21870693 395.39064653 16 397 C13.19789547 397.10028585 10.42681226 397.14205303 7.625 397.125 C6.81659668 397.12016602 6.00819336 397.11533203 5.17529297 397.11035156 C0.48928425 397.06378022 -4.19469041 396.99328342 -8.875 396.75 C-9.77992187 396.70359375 -10.68484375 396.6571875 -11.6171875 396.609375 C-14.74187724 395.81027402 -16.00796847 394.4979443 -18 392 C-18.6875 388.6875 -18.6875 388.6875 -18 385 C-16.39518177 383.14593207 -14.6298406 381.57872667 -12.8125 379.93359375 C-9.60227395 376.50889139 -8.388568 372.41227213 -7 368 C-6.72414063 367.1440625 -6.44828125 366.288125 -6.1640625 365.40625 C-4.29626948 359.11862992 -3.31636657 352.82753181 -2.46484375 346.33203125 C-2.07758288 343.55611933 -1.59334584 340.86175017 -1 338.125 C2.9395613 318.86492251 4.00001963 299.86902726 -2 281 C-2.31195313 279.948125 -2.62390625 278.89625 -2.9453125 277.8125 C-4.93939405 271.64592849 -7.59610049 267.66698961 -12 263 C-18.23124649 255.27249676 -22.49649072 246.22461468 -26.75 237.3125 C-27.04374512 236.70728516 -27.33749023 236.10207031 -27.64013672 235.47851562 C-29.4163258 231.68575098 -30.60863971 228.00490868 -31.54394531 223.94848633 C-32.49925991 219.86692006 -33.79542886 215.86913742 -35 211.85546875 C-37.21746365 203.30610694 -38.27842868 195.14443301 -38.23828125 186.3203125 C-38.25369789 184.31900361 -38.27000129 182.31770139 -38.28710938 180.31640625 C-38.3035211 177.22071356 -38.31250118 174.12551765 -38.30541992 171.02978516 C-38.29223895 155.94835993 -38.77417704 140.6082111 -50 129 C-53.50104532 127.68998504 -53.50104532 127.68998504 -57 127 C-60.5860318 124.05148496 -62.70456336 121.47514476 -64 117 C-64 116.01 -64 115.02 -64 114 C-65.32 114 -66.64 114 -68 114 C-68.020625 114.99 -68.04125 115.98 -68.0625 117 C-68.84196558 122.22135162 -71.84112207 125.88860065 -76 129 C-79.29388929 130.16561927 -81.71134909 130.19534297 -85 129 C-87.09373225 127.17007801 -88.67156477 125.29623974 -90.296875 123.04296875 C-92.43625948 120.47668874 -93.89516981 119.30926574 -97 118 C-101.20680261 117.70907899 -105.40485912 118.02857929 -109.60742188 118.29296875 C-113.98881719 118.44393818 -116.98880706 118.52684701 -120.48046875 115.671875 C-127.00310742 108.75484423 -127.45406795 104.04695133 -127.53125 94.62109375 C-126.82156613 89.78376329 -124.90489001 86.72222933 -121.2890625 83.453125 C-120.46535156 82.85757813 -120.46535156 82.85757813 -119.625 82.25 C-115.83107446 79.16946217 -113.78014786 75.58578124 -111.37890625 71.37890625 C-108.20611755 65.90517164 -104.45279837 62.48795572 -99.5625 58.5625 C-93.56194045 53.74435634 -89.23525392 49.01160414 -85.1875 42.5 C-80.54308878 35.3753273 -73.94905813 30.79689082 -66 28 C-64.865625 27.814375 -63.73125 27.62875 -62.5625 27.4375 C-57.86179716 25.54072517 -56.08670418 22.71915576 -53.09375 18.73046875 C-40.30910751 2.05795923 -20.76634038 -6.96166839 0 0 Z " fill="#FCFCFC" transform="translate(132,24)"/>
<path d="M0 0 C0.85207031 0.268125 1.70414063 0.53625 2.58203125 0.8125 C10.06053 3.32276532 18.87418363 6.6925831 24 13 C23.57894737 17.42105263 23.57894737 17.42105263 22 19 C20.3610707 19.12156945 18.71735374 19.17969974 17.07421875 19.2109375 C-7.05863633 19.79210441 -7.05863633 19.79210441 -28 31 C-28.33 31.99 -28.66 32.98 -29 34 C-27.7625 34.2784375 -27.7625 34.2784375 -26.5 34.5625 C-17.63635606 38.20292519 -10.60160752 46.77215346 -6 55 C-5.29474751 56.9122869 -4.64937185 58.84736922 -4.0546875 60.796875 C-3.5294751 62.47052124 -3.5294751 62.47052124 -2.99365234 64.17797852 C-2.62449707 65.35674561 -2.2553418 66.5355127 -1.875 67.75 C5.75805287 91.34893374 19.16061227 117.08532471 41.375 130.1875 C42.58053635 130.79722855 43.78923057 131.40073028 45 132 C45.81339844 132.47050781 46.62679687 132.94101563 47.46484375 133.42578125 C71.10814839 146.49608546 99.46167351 142.78458756 125.32617188 140.21533203 C223.97359511 130.41784997 223.97359511 130.41784997 255 154 C255.66 154.66 256.32 155.32 257 156 C268.45742389 156.97776703 283.25570025 151.64302459 292.11328125 144.6953125 C296.04019514 141.16678118 298.21584648 137.94073283 300 133 C301 132 301 132 303.875 131.6875 C307 132 307 132 308.66796875 133.421875 C310.712907 137.37982 310.48834914 141.16969953 310.4375 145.5625 C310.42614014 146.91178589 310.42614014 146.91178589 310.41455078 148.28833008 C310.0286914 163.88465352 301.95292156 175.36382959 291 186 C287.12219048 189.18409585 283.12195191 192.14077829 279 195 C277.93136719 195.74507812 276.86273438 196.49015625 275.76171875 197.2578125 C273 199 273 199 271 199 C271.01571045 199.61705811 271.0314209 200.23411621 271.04760742 200.86987305 C271.40946287 217.39155149 270.27871205 233.04125205 266.92578125 249.22265625 C263.92621461 264.09911972 267.44663305 278.77629202 274.984375 291.82421875 C283.51046051 310.08971732 275.61386281 342.29910984 273.5625 361.4375 C273.39754028 363.07150757 273.39754028 363.07150757 273.22924805 364.73852539 C273.05582886 366.25820923 273.05582886 366.25820923 272.87890625 367.80859375 C272.7816626 368.69345459 272.68441895 369.57831543 272.58422852 370.48999023 C271.74537013 374.09396142 270.36934005 377.14086374 267.17578125 379.14453125 C265.45052083 379.76302083 263.72526042 380.38151042 262 381 C262.33 382.010625 262.66 383.02125 263 384.0625 C264.07001321 387.75479911 264.15704155 391.15248207 264 395 C263.34 395 262.68 395 262 395 C261.7525 395.61875 261.505 396.2375 261.25 396.875 C259.69788015 399.51360375 258.86796573 399.95600879 256 401 C253.48619965 401.11212296 251.10560393 401.11835587 248.6015625 401.01171875 C247.88898285 400.98906448 247.1764032 400.96641022 246.44223022 400.94306946 C244.93755051 400.8932153 243.43303206 400.8382674 241.92871094 400.77856445 C239.64021892 400.6881016 237.3516352 400.61316672 235.0625 400.54101562 C233.59632238 400.4904975 232.13017495 400.43909393 230.6640625 400.38671875 C229.98574371 400.36373215 229.30742493 400.34074554 228.60855103 400.31706238 C224.67165255 400.15649827 220.84344171 399.89384899 217 399 C215.73973202 396.47946405 216.08125555 395.1457902 216.4375 392.375 C216.53933594 391.55773437 216.64117187 390.74046875 216.74609375 389.8984375 C216.82988281 389.27195312 216.91367187 388.64546875 217 388 C215.80375 387.9175 214.6075 387.835 213.375 387.75 C209.09584533 387.22555653 206.38584128 385.72518932 203 383 C201.37347971 379.74695941 201.40578685 376.512125 202 373 C203.42125849 370.28617689 205.28978472 368.10048942 207.3125 365.8125 C208.31104027 364.63357826 209.3071908 363.45262769 210.30078125 362.26953125 C210.74591064 361.76010986 211.19104004 361.25068848 211.6496582 360.72583008 C212.095271 360.15630615 212.54088379 359.58678223 213 359 C213.54624023 358.33073486 214.09248047 357.66146973 214.65527344 356.97192383 C216.71113824 352.42834318 216.33563495 348.10444782 216.21484375 343.1796875 C216.18941246 341.59802292 216.18941246 341.59802292 216.16346741 339.98440552 C216.12299499 337.753447 216.07458061 335.52262042 216.01879883 333.29199219 C215.93828834 329.90813397 215.89421894 326.52516757 215.85351562 323.140625 C215.80950879 320.96609983 215.76335237 318.7916169 215.71484375 316.6171875 C215.70420395 315.61783173 215.69356415 314.61847595 215.68260193 313.58883667 C215.46410826 306.42468395 213.78515153 300.58192473 211 294 C210.5875 292.989375 210.175 291.97875 209.75 290.9375 C206.96892918 286.26927399 203.52371044 282.1275721 200 278 C199.54367187 277.40316406 199.08734375 276.80632812 198.6171875 276.19140625 C194.78952969 273.37151342 188.4138407 275.36052199 184 276 C181.9098769 276.44862444 179.82603557 276.9276424 177.75 277.4375 C140.52857094 286.38116493 100.48191757 280.33558504 64 271 C63.18681176 274.72901693 62.37457052 278.45823952 61.5625 282.1875 C61.21735352 283.77014648 61.21735352 283.77014648 60.86523438 285.38476562 C60.64287109 286.40634766 60.42050781 287.42792969 60.19140625 288.48046875 C59.98717041 289.41785889 59.78293457 290.35524902 59.57250977 291.32104492 C59.38358154 292.2051001 59.19465332 293.08915527 59 294 C58.8146167 294.77867432 58.6292334 295.55734863 58.43823242 296.35961914 C57.86246579 299.82865322 57.81791468 303.25897891 57.796875 306.765625 C57.79117493 307.51728943 57.78547485 308.26895386 57.77960205 309.043396 C57.77017543 310.63698942 57.76362738 312.23060213 57.75976562 313.82421875 C57.75019768 316.20089624 57.71921269 318.57665529 57.6875 320.953125 C57.63013557 329.62870517 58.15649996 337.80285109 60.03338623 346.29400635 C60.99574527 350.82592967 60.99606787 354.47339788 60 359 C58.22265625 361.66015625 58.22265625 361.66015625 56.0625 364.0625 C51.97793169 368.63632694 50.22591337 372.42458761 49.6875 378.5625 C48.83795646 382.8102177 47.28661315 384.27451592 44 387 C41.65147472 388.17426264 40.26225935 388.11508173 37.6484375 388.09765625 C36.79765625 388.09443359 35.946875 388.09121094 35.0703125 388.08789062 C34.18085938 388.07951172 33.29140625 388.07113281 32.375 388.0625 C31.4778125 388.05798828 30.580625 388.05347656 29.65625 388.04882812 C27.43743352 388.03702591 25.21874982 388.02056155 23 388 C22.7009375 388.78890625 22.401875 389.5778125 22.09375 390.390625 C20.69532712 393.72686243 19.21870693 395.39064653 16 397 C13.19789547 397.10028585 10.42681226 397.14205303 7.625 397.125 C6.81659668 397.12016602 6.00819336 397.11533203 5.17529297 397.11035156 C0.48928425 397.06378022 -4.19469041 396.99328342 -8.875 396.75 C-9.77992187 396.70359375 -10.68484375 396.6571875 -11.6171875 396.609375 C-14.74187724 395.81027402 -16.00796847 394.4979443 -18 392 C-18.6875 388.6875 -18.6875 388.6875 -18 385 C-16.39518177 383.14593207 -14.6298406 381.57872667 -12.8125 379.93359375 C-9.60227395 376.50889139 -8.388568 372.41227213 -7 368 C-6.72414063 367.1440625 -6.44828125 366.288125 -6.1640625 365.40625 C-4.29626948 359.11862992 -3.31636657 352.82753181 -2.46484375 346.33203125 C-2.07758288 343.55611933 -1.59334584 340.86175017 -1 338.125 C2.9395613 318.86492251 4.00001963 299.86902726 -2 281 C-2.31195313 279.948125 -2.62390625 278.89625 -2.9453125 277.8125 C-4.93939405 271.64592849 -7.59610049 267.66698961 -12 263 C-18.23124649 255.27249676 -22.49649072 246.22461468 -26.75 237.3125 C-27.04374512 236.70728516 -27.33749023 236.10207031 -27.64013672 235.47851562 C-29.4163258 231.68575098 -30.60863971 228.00490868 -31.54394531 223.94848633 C-32.49925991 219.86692006 -33.79542886 215.86913742 -35 211.85546875 C-37.21746365 203.30610694 -38.27842868 195.14443301 -38.23828125 186.3203125 C-38.25369789 184.31900361 -38.27000129 182.31770139 -38.28710938 180.31640625 C-38.3035211 177.22071356 -38.31250118 174.12551765 -38.30541992 171.02978516 C-38.29223895 155.94835993 -38.77417704 140.6082111 -50 129 C-53.50104532 127.68998504 -53.50104532 127.68998504 -57 127 C-60.5860318 124.05148496 -62.70456336 121.47514476 -64 117 C-64 116.01 -64 115.02 -64 114 C-65.32 114 -66.64 114 -68 114 C-68.020625 114.99 -68.04125 115.98 -68.0625 117 C-68.84196558 122.22135162 -71.84112207 125.88860065 -76 129 C-79.29388929 130.16561927 -81.71134909 130.19534297 -85 129 C-87.09373225 127.17007801 -88.67156477 125.29623974 -90.296875 123.04296875 C-92.43625948 120.47668874 -93.89516981 119.30926574 -97 118 C-101.20680261 117.70907899 -105.40485912 118.02857929 -109.60742188 118.29296875 C-113.98881719 118.44393818 -116.98880706 118.52684701 -120.48046875 115.671875 C-127.00310742 108.75484423 -127.45406795 104.04695133 -127.53125 94.62109375 C-126.82156613 89.78376329 -124.90489001 86.72222933 -121.2890625 83.453125 C-120.46535156 82.85757813 -120.46535156 82.85757813 -119.625 82.25 C-115.83107446 79.16946217 -113.78014786 75.58578124 -111.37890625 71.37890625 C-108.20611755 65.90517164 -104.45279837 62.48795572 -99.5625 58.5625 C-93.56194045 53.74435634 -89.23525392 49.01160414 -85.1875 42.5 C-80.54308878 35.3753273 -73.94905813 30.79689082 -66 28 C-64.865625 27.814375 -63.73125 27.62875 -62.5625 27.4375 C-57.86179716 25.54072517 -56.08670418 22.71915576 -53.09375 18.73046875 C-40.30910751 2.05795923 -20.76634038 -6.96166839 0 0 Z M-46.3984375 25.97265625 C-48.59662611 28.75524135 -50.74157744 31.57204833 -52.8359375 34.43359375 C-54.92468314 37.24428838 -56.22059295 37.2842266 -59.6875 37.875 C-70.63859406 40.05277439 -75.42783255 46.10263217 -81.4375 55.0625 C-85.22992504 60.59876334 -89.7922701 64.48666374 -95.0390625 68.59765625 C-100.01240343 72.65889798 -103.10101391 76.9892697 -106.40625 82.48046875 C-108.81648637 86.29076889 -111.7189942 89.08981167 -115.375 91.6875 C-117.73505318 95.04603721 -117.04266695 97.70276189 -116.5546875 101.66015625 C-116.08369924 104.25124878 -116.08369924 104.25124878 -114 107 C-111.41307079 107.11663611 -109.01025425 107.08269851 -106.4375 106.9375 C-96.38743813 106.667265 -90.38826105 109.41491397 -82.7265625 115.92578125 C-82.15679687 116.28027344 -81.58703125 116.63476562 -81 117 C-80.01 116.67 -79.02 116.34 -78 116 C-76.96683512 113.20827761 -76.96683512 113.20827761 -76.3125 109.9375 C-76.06113281 108.83277344 -75.80976562 107.72804688 -75.55078125 106.58984375 C-75.36902344 105.73519531 -75.18726563 104.88054687 -75 104 C-70.545 103.505 -70.545 103.505 -66 103 C-65.76925781 101.98421875 -65.53851563 100.9684375 -65.30078125 99.921875 C-60.44733482 79.18028344 -60.44733482 79.18028344 -54.1875 71.1875 C-51.57901209 67.38656047 -51.49792648 65.51866167 -52 61 C-52.309375 59.6078125 -52.309375 59.6078125 -52.625 58.1875 C-52.74875 57.465625 -52.8725 56.74375 -53 56 C-52.01 55.01 -52.01 55.01 -51 54 C-48 54.125 -48 54.125 -45 55 C-41.93407636 59.7458818 -41.87037528 64.58873319 -43 70 C-45.13512131 74.84374361 -47.88278157 79.34053826 -50.6171875 83.86328125 C-54.32235308 90.12280832 -55.32557293 95.33316743 -55.25 102.5 C-55.25773437 103.23347656 -55.26546875 103.96695313 -55.2734375 104.72265625 C-55.25742962 109.1968584 -54.68015168 112.78628625 -53 117 C-47.05715544 116.12605227 -43.84768469 113.52540187 -40 109 C-34.61568761 100.02965144 -30.69741913 91.19150943 -30.83984375 80.5703125 C-30.84504532 79.89451141 -30.85024689 79.21871033 -30.85560608 78.52243042 C-30.87324822 76.38972249 -30.9044358 74.25751993 -30.9375 72.125 C-30.96512014 69.97110969 -30.98978106 67.81728443 -31.00868225 65.66329956 C-31.02649793 63.72484325 -31.05390366 61.78648216 -31.08178711 59.84814453 C-31 57 -31 57 -30 56 C-27.66055264 56.28730055 -25.3260857 56.61936779 -23 57 C-18.55708737 71.8894591 -20.66702317 93.00448036 -27.390625 106.8671875 C-30.38215853 112.17322328 -34.38360685 119.19180342 -40 122 C-39.30546871 125.53959922 -37.86126465 128.38022848 -36.1875 131.5625 C-31.09784008 141.55829845 -27.89565641 150.58021869 -27.75390625 161.796875 C-27.72091092 163.57943094 -27.68770042 165.36198291 -27.65429688 167.14453125 C-27.60737584 169.9281888 -27.56304634 172.71183752 -27.52319336 175.49560547 C-27.29134989 190.95831551 -26.86745045 206.12233077 -21.9375 220.9375 C-21.63513428 221.86280518 -21.33276855 222.78811035 -21.02124023 223.74145508 C-16.42578934 237.22833154 -9.56663338 248.6766903 -1 260 C4.42578848 267.49171996 7.14172137 273.98734862 9 283 C9.23976563 283.87785156 9.47953125 284.75570313 9.7265625 285.66015625 C11.60634114 292.58848324 12.54754329 298.95077717 12.5 306.125 C12.49427979 307.17631104 12.48855957 308.22762207 12.48266602 309.31079102 C12.02310376 330.7864294 10.29897082 366.67554553 -3 384 C-3 384.66 -3 385.32 -3 386 C2.28 386 7.56 386 13 386 C14.43623633 381.33854737 14.43623633 381.33854737 15.84057617 376.66748047 C17.39507044 371.82061334 19.48333343 368.69053685 23 365 C23.66 364.67 24.32 364.34 25 364 C25.02759148 363.14247383 25.02759148 363.14247383 25.05574036 362.2676239 C25.25287562 356.21408326 25.46681252 350.16128854 25.68969727 344.10864258 C25.77033951 341.86204274 25.84696516 339.61529442 25.91918945 337.3684082 C26.34940373 324.07923741 27.21985034 311.15760772 29.63249207 298.07299805 C30.15075275 295.14965058 30.57994072 292.21506495 31.00553894 289.2769928 C32.27824401 280.87278669 34.88435879 273.68380294 38.22705078 265.89111328 C39.5783495 262.58499835 40.69739134 259.20418535 41.8125 255.8125 C42.21082031 254.60207031 42.60914063 253.39164063 43.01953125 252.14453125 C43.50486328 250.58798828 43.50486328 250.58798828 44 249 C44.20625 248.36578125 44.4125 247.7315625 44.625 247.078125 C46.59871742 236.14044097 46.21369418 221.64817658 40.25 212.125 C38.28962945 209.41805099 36.32401818 207.29568399 33.6875 205.25 C31 203 31 203 30 200.375 C30 198 30 198 32 195 C35.99385793 195.52788383 38.09896936 196.53981293 41.0625 199.25 C41.71347656 199.83265625 42.36445313 200.4153125 43.03515625 201.015625 C51.57757723 209.6429607 54.24800386 218.52869257 54.39160156 230.40527344 C54.35055402 238.67514534 54.0473578 246.79283564 53 255 C56.94159564 257.60251228 60.94689326 259.14321965 65.4375 260.5 C66.14269775 260.71575684 66.84789551 260.93151367 67.57446289 261.15380859 C74.30796237 263.16834227 81.0960556 264.68638463 88 266 C89.33984575 266.27082342 90.67968943 266.54165712 92.01953125 266.8125 C121.27585315 272.54776264 154.95250987 272.90366357 184 266 C184 262.23603741 182.89081604 261.12661895 180.6875 258.125 C168.75751997 241.76817203 166.62263607 223.19626573 169.36621094 203.35107422 C172.79446502 184.20553498 172.79446502 184.20553498 177 180 C179.4375 179.8125 179.4375 179.8125 182 180 C182.66 180.66 183.32 181.32 184 182 C183.75376554 186.02182946 182.9215585 189.30902534 181.5 193.0625 C179.35906186 199.2451116 179.21268905 205.5063374 179 212 C178.96712891 212.9902417 178.96712891 212.9902417 178.93359375 214.00048828 C178.43776027 231.2183057 180.43078509 245.35323831 192.75 258.4375 C199.92012083 265.13033594 207.87347811 268.71109501 217.03515625 271.87890625 C228.44770445 276.19432303 238.87715552 280.78043636 244.12841797 292.28125 C247.36809614 299.78345763 247.92340323 306.77473111 247.9453125 314.9375 C247.96680519 316.31562398 247.99027435 317.69371837 248.01559448 319.07177734 C248.06186279 321.92900952 248.0884769 324.78548657 248.09960938 327.64306641 C248.11488574 331.29309168 248.1746907 334.94077805 248.24824715 338.59004211 C248.30148573 341.42272592 248.33441533 344.25536055 248.3609581 347.08840942 C248.38236961 349.0837272 248.41834156 351.07887178 248.45462036 353.07397461 C248.46334481 364.15971839 248.46334481 364.15971839 244 369 C243.29101562 369.82242187 242.58203125 370.64484375 241.8515625 371.4921875 C241.11679687 372.27851563 240.38203125 373.06484375 239.625 373.875 C232.27002931 380.98882377 232.27002931 380.98882377 229 390 C236.92 390 244.84 390 253 390 C252.67 388.68 252.34 387.36 252 386 C251.15023575 377.30732962 251.15023575 377.30732962 253.625 373.5 C256 372 256 372 259.1875 371 C260.115625 370.67 261.04375 370.34 262 370 C262.96726035 367.32847487 263.18208222 364.65492281 263.37304688 361.83325195 C263.42980591 361.02173172 263.48656494 360.21021149 263.54504395 359.37409973 C263.60236694 358.50427963 263.65968994 357.63445953 263.71875 356.73828125 C263.78155151 355.83305222 263.84435303 354.92782318 263.90905762 353.99516296 C264.10941784 351.10116254 264.30503629 348.20686859 264.5 345.3125 C264.69554684 342.43603008 264.892164 339.55964386 265.09094238 336.68339539 C265.21429729 334.89594596 265.33575373 333.1083641 265.45495605 331.32063293 C265.78492248 326.51126692 266.21775078 321.72973879 266.7832489 316.94213867 C268.10756012 305.07601181 266.05585871 295.51393145 260.375 285.0625 C254.97902216 274.60260449 254.05961916 258.78804742 256.60546875 247.2578125 C257.12342712 245.69604971 257.65496655 244.13873286 258.19921875 242.5859375 C261.80649233 230.93708331 261.17077964 218.34452506 260.75073242 206.31665039 C260.64823081 201.43003552 260.57826639 197.92558361 262.625 193.43359375 C265.27566333 190.71753577 267.80537545 189.02329237 271.125 187.1875 C277.48658974 183.5021158 282.78248955 179.20830849 288 174 C288.65871094 173.35289062 289.31742187 172.70578125 289.99609375 172.0390625 C294.58215415 167.20643971 300 159.93473635 300 153 C297.67602838 154.13666409 295.40705689 155.32932271 293.14453125 156.5859375 C284.01023931 161.49039906 275.2071474 164.2341635 265 166 C264.0615625 166.17144531 263.123125 166.34289062 262.15625 166.51953125 C255.37534771 167.16900079 251.10824745 163.92939276 245.59765625 160.30078125 C215.11822721 140.40084906 176.55640498 146.47200776 142 149 C140.75089844 149.09071777 139.50179688 149.18143555 138.21484375 149.27490234 C132.7083477 149.6790556 127.20305579 150.0962479 121.69921875 150.53515625 C120.28310303 150.64802979 120.28310303 150.64802979 118.83837891 150.76318359 C116.93348772 150.92211568 115.02946999 151.09185815 113.12646484 151.27197266 C81.5732014 154.18530841 52.32568123 152.53966363 27 132 C26.04609375 131.24074219 25.0921875 130.48148437 24.109375 129.69921875 C13.02258459 120.2754469 4.36856983 108.02580005 -2 95 C-2.37125 94.30261719 -2.7425 93.60523437 -3.125 92.88671875 C-6.53500105 86.36913265 -8.91517801 79.75504837 -11.125 72.75 C-15.15082137 60.09741856 -19.10095669 51.26283545 -30.25 43.6875 C-36.97524752 39.02475248 -36.97524752 39.02475248 -38 38 C-38.43316485 33.9682349 -38.43147838 30.20813945 -37.0625 26.375 C-32.40482469 21.0116163 -25.87328248 15.67808071 -18.98828125 13.7109375 C-17.85229492 13.38222656 -17.85229492 13.38222656 -16.69335938 13.046875 C-15.90767578 12.82515625 -15.12199219 12.6034375 -14.3125 12.375 C-13.51521484 12.14554688 -12.71792969 11.91609375 -11.89648438 11.6796875 C-9.9323213 11.11513764 -7.96633153 10.55695012 -6 10 C-19.79794553 0.80136964 -37.89980691 15.80249406 -46.3984375 25.97265625 Z " fill="#070707" transform="translate(132,24)"/>
<path d="M0 0 C2.475 0.495 2.475 0.495 5 1 C4.81824219 1.86238281 4.63648438 2.72476562 4.44921875 3.61328125 C3.75188412 6.9998243 3.08732432 10.39045743 2.43652344 13.78613281 C2.02930067 15.85139908 1.58326924 17.90477103 1.1328125 19.9609375 C-1.11662016 31.06225556 -1.29604675 42.0913591 -1.3125 53.375 C-1.31774185 54.53483902 -1.31774185 54.53483902 -1.3230896 55.71810913 C-1.34476021 64.36766466 -1.02188909 72.65549153 0.57348633 81.18994141 C1.02865945 84.18882099 1.16294224 86.97147561 1 90 C-0.390625 91.84375 -0.390625 91.84375 -2.25 93.5 C-7.27781914 98.72158905 -8.4443918 105.12054011 -10 112 C-13.96 112 -17.92 112 -22 112 C-20 107 -20 107 -17.41259766 104.18652344 C-14.5212081 100.36761871 -14.3120764 97.61558 -14.3984375 93.015625 C-14.3916095 92.25089371 -14.38478149 91.48616241 -14.37774658 90.69825745 C-14.36432955 89.06293802 -14.36119503 87.42750711 -14.36749268 85.79214478 C-14.38018343 81.49477604 -14.30686515 77.19899356 -14.234375 72.90234375 C-14.21457077 71.62232735 -14.21457077 71.62232735 -14.19436646 70.31645203 C-14.00038347 60.04369905 -12.85606298 49.94041768 -11.39404297 39.7734375 C-11.01301826 37.09162788 -10.676149 34.40743029 -10.34765625 31.71875 C-8.88757365 20.48017281 -6.38673466 9.58010199 0 0 Z " fill="#F1F1F1" transform="translate(181,290)"/>
<path d="M0 0 C7.43950023 2.78161208 14.4023465 6.66078686 18 14 C19.91500503 20.32322133 20.26257692 26.39520899 20.16015625 32.9609375 C20.15495468 33.87332184 20.14975311 34.78570618 20.14439392 35.72573853 C20.12674019 38.60899614 20.09556439 41.49188135 20.0625 44.375 C20.03484493 47.27950354 20.0101689 50.18395715 19.99131775 53.08853149 C19.97909367 54.88819931 19.96152247 56.68784059 19.93800354 58.48739624 C19.92820717 59.70478989 19.92820717 59.70478989 19.91821289 60.94677734 C19.90995987 61.65909515 19.90170685 62.37141296 19.89320374 63.10531616 C19.92964344 65.22615967 19.92964344 65.22615967 21 68 C21.58701671 72.94771227 21.57377472 75.76973891 18.5625 79.8125 C18.01207031 80.45832031 17.46164062 81.10414063 16.89453125 81.76953125 C14.89087624 84.0558589 14.89087624 84.0558589 12.94921875 86.94921875 C7.39707263 94.65121897 7.39707263 94.65121897 3.19921875 95.69921875 C0.7037906 95.68862995 -1.55925057 95.50445552 -4 95 C-3.63732427 90.88967504 -2.18948125 89.01107523 0.45703125 85.96875 C7.68667603 76.74408932 10.21418974 68.61758823 9 57 C8.83242188 55.99066406 8.66484375 54.98132813 8.4921875 53.94140625 C7.61186214 46.89181663 7.67676917 39.76439451 7.5703125 32.66601562 C7.27846657 21.41170713 5.32873456 11.92247125 0 2 C0 1.34 0 0.68 0 0 Z " fill="#F8F8F8" transform="translate(350,307)"/>
<path d="M0 0 C0.33 0.99 0.66 1.98 1 3 C3.97 3.33 6.94 3.66 10 4 C10 4.33 10 4.66 10 5 C6.04 5 2.08 5 -2 5 C-1.34 3.35 -0.68 1.7 0 0 Z " fill="#AFAFAF" transform="translate(161,397)"/>
</svg>
